<?xml version="1.0" encoding="UTF-8"?>
<svg width="155px" height="104px" viewBox="0 0 155 104" version="1.1" xmlns="http://www.w3.org/2000/svg" xmlns:xlink="http://www.w3.org/1999/xlink">
    <title>Table</title>
    <g id="组件骨架图更新" stroke="none" stroke-width="1" fill="none" fill-rule="evenodd">
        <g id="🎉-5.0-新版" transform="translate(-541.000000, -3726.000000)" fill-rule="nonzero">
            <g id="Table" transform="translate(541.000000, 3726.000000)">
                <rect id="矩形复制-55" fill="#EBEBEB" x="0" y="0" width="155" height="20"></rect>
                <rect id="矩形复制-81" fill="#EBEBEB" x="11" y="32" width="23" height="6"></rect>
                <rect id="矩形复制-155" fill="#EBEBEB" x="11" y="59" width="23" height="6"></rect>
                <rect id="矩形复制-159" fill="#EBEBEB" x="11" y="86" width="23" height="6"></rect>
                <rect id="矩形复制-153" fill="#F5F5F5" x="66" y="32" width="24" height="6"></rect>
                <rect id="矩形复制-156" fill="#F5F5F5" x="66" y="59" width="24" height="6"></rect>
                <rect id="矩形复制-160" fill="#F5F5F5" x="66" y="86" width="24" height="6"></rect>
                <rect id="矩形复制-154" fill="#31DA9F" x="121" y="32" width="24" height="6"></rect>
                <rect id="矩形复制-157" fill="#31DA9F" x="121" y="59" width="24" height="6"></rect>
                <rect id="矩形复制-161" fill="#31DA9F" x="121" y="86" width="24" height="6"></rect>
                <rect id="矩形复制-149" fill="#F5F5F5" style="mix-blend-mode: multiply;" x="10" y="7" width="24" height="6"></rect>
                <rect id="矩形复制-150" fill="#F5F5F5" style="mix-blend-mode: multiply;" x="66" y="7" width="24" height="6"></rect>
                <rect id="矩形复制-151" fill="#F5F5F5" style="mix-blend-mode: multiply;" x="121" y="7" width="24" height="6"></rect>
                <rect id="矩形" fill="#E0E0E0" x="0" y="20" width="155" height="1"></rect>
                <rect id="矩形复制-129" fill="#E0E0E0" x="0" y="48" width="155" height="1"></rect>
                <rect id="矩形复制-158" fill="#E0E0E0" x="0" y="75" width="155" height="1"></rect>
                <rect id="矩形复制-152" fill="#E0E0E0" x="0" y="103" width="155" height="1"></rect>
            </g>
        </g>
    </g>
</svg>