<?xml version="1.0" encoding="UTF-8"?>
<svg width="240px" height="180px" viewBox="0 0 240 180" version="1.1" xmlns="http://www.w3.org/2000/svg" xmlns:xlink="http://www.w3.org/1999/xlink">
    <title>ThemeData Skeleton</title>
    <defs>
        <filter x="-10%" y="-10%" width="120%" height="120%" filterUnits="objectBoundingBox" id="shadow-1">
            <feOffset dx="0" dy="1" in="SourceAlpha" result="shadowOffsetOuter1"></feOffset>
            <feGaussianBlur stdDeviation="1" in="shadowOffsetOuter1" result="shadowBlurOuter1"></feGaussianBlur>
            <feColorMatrix values="0 0 0 0 0   0 0 0 0 0   0 0 0 0 0  0 0 0 0.1 0" type="matrix" in="shadowBlurOuter1"></feColorMatrix>
        </filter>
    </defs>
    <g id="组件骨架图-ThemeData" stroke="none" stroke-width="1" fill="none" fill-rule="evenodd">
        <g id="ThemeData-Board" transform="translate(0.000000, 0.000000)">
            
            <rect id="Board-Bg" stroke="#E0E0E0" fill="#FFFFFF" x="0.5" y="0.5" width="239" height="179" rx="8"></rect>
            
            <g id="Section-Colors" transform="translate(20.000000, 20.000000)">
                <circle id="Color-Primary" fill="#31DA9F" cx="16" cy="16" r="16"></circle>
                <circle id="Color-Secondary" fill="#31DA9F" fill-opacity="0.4" cx="56" cy="16" r="16"></circle>
                <circle id="Color-Surface" fill="#F5F5F5" cx="96" cy="16" r="16"></circle>
                <rect id="Label-1" fill="#EBEBEB" x="0" y="38" width="32" height="4" rx="2"></rect>
                <rect id="Label-2" fill="#F5F5F5" x="40" y="38" width="32" height="4" rx="2"></rect>
                <rect id="Label-3" fill="#F5F5F5" x="80" y="38" width="32" height="4" rx="2"></rect>
            </g>

            <g id="Section-Typography" transform="translate(140.000000, 20.000000)">
                <rect id="Type-H1" fill="#E0E0E0" x="0" y="0" width="60" height="10" rx="2"></rect>
                <rect id="Type-Sub" fill="#EBEBEB" x="0" y="16" width="40" height="6" rx="2"></rect>
                <rect id="Type-Body-1" fill="#F5F5F5" x="0" y="28" width="80" height="4" rx="2"></rect>
                <rect id="Type-Body-2" fill="#F5F5F5" x="0" y="36" width="50" height="4" rx="2"></rect>
            </g>

            <rect id="Divider" fill="#F5F5F5" x="20" y="65" width="200" height="1"></rect>

            <g id="Section-Components" transform="translate(20.000000, 85.000000)">
                
                <g id="Btn-Elevated" transform="translate(0.000000, 0.000000)">
                    <rect id="Shape" fill="#31DA9F" filter="url(#shadow-1)" x="0" y="0" width="80" height="28" rx="14"></rect>
                    <rect id="Text" fill="#FFFFFF" opacity="0.9" x="25" y="11" width="30" height="6" rx="1"></rect>
                </g>

                <g id="Btn-Outlined" transform="translate(95.000000, 0.000000)">
                    <rect id="Shape" stroke="#E0E0E0" stroke-width="1.5" fill="none" x="0.75" y="0.75" width="80" height="26.5" rx="13.25"></rect>
                    <rect id="Text" fill="#E0E0E0" x="25" y="11" width="30" height="6" rx="1"></rect>
                </g>

                <g id="Btn-FAB" transform="translate(156.000000, 45.000000)">
                    <circle id="Shape" fill="#31DA9F" filter="url(#shadow-1)" cx="20" cy="20" r="20"></circle>
                    <path d="M20,13 L20,27 M13,20 L27,20" stroke="#FFFFFF" stroke-width="3" stroke-linecap="round"></path>
                </g>
                
                <g id="Input-Switch" transform="translate(0.000000, 45.000000)">
                    <rect id="Track" fill="#31DA9F" opacity="0.3" x="0" y="8" width="32" height="14" rx="7"></rect>
                    <circle id="Thumb" fill="#31DA9F" filter="url(#shadow-1)" cx="24" cy="15" r="10"></circle>
                </g>
                
                <g id="Input-Checkbox" transform="translate(50.000000, 48.000000)">
                     <rect id="Box" fill="#31DA9F" x="0" y="0" width="24" height="24" rx="4"></rect>
                     <path d="M6,12 L10,16 L18,8" stroke="#FFFFFF" stroke-width="2" stroke-linecap="round" stroke-linejoin="round"></path>
                </g>

            </g>
            
        </g>
    </g>
</svg>