<?xml version="1.0" standalone="no"?><!DOCTYPE svg PUBLIC "-//W3C//DTD SVG 1.1//EN" "http://www.w3.org/Graphics/SVG/1.1/DTD/svg11.dtd"><svg t="1758377305161" class="icon" viewBox="0 0 1025 1024" version="1.1" xmlns="http://www.w3.org/2000/svg" p-id="2829" data-darkreader-inline-fill="" xmlns:xlink="http://www.w3.org/1999/xlink" width="200.1953125" height="200"><path d="M661.832428 119.41888c-15.13472-15.11424-35.20512-23.42912-56.56576-23.42912s-41.43104 8.31488-56.64768 23.4496l-45.11744 45.17888c-15.13472 15.09376-23.49056 35.20512-23.49056 56.60672 0 15.07328 4.13696 29.51168 11.8784 42.02496l-434.46272 174.03904c-29.06112 12.75904-49.88928 38.97344-55.74656 70.0416-5.91872 31.27296 3.9936 63.32416 26.68544 85.97504l407.04 402.55488c17.53088 17.53088 40.83712 27.48416 65.4336 28.0576 0.57344 0.04096 1.92512 0.04096 2.49856 0.04096 6.47168 0 13.02528-0.67584 19.51744-1.98656 31.80544-6.59456 57.856-28.5696 69.67296-58.49088l170.94656-428.032c12.86144 8.47872 27.99616 13.02528 43.74528 13.02528 21.44256 0 41.51296-8.35584 56.56576-23.4496l45.01504-45.056c15.2576-15.17568 23.61344-35.28704 23.61344-56.7296s-8.37632-41.59488-23.42912-56.58624l-247.17312-247.25504zM533.095148 939.74528c-3.97312 10.01472-12.6976 17.408-23.26528 19.57888-2.43712 0.512-4.89472 0.69632-7.33184 0.67584-8.13056-0.18432-15.9744-3.46112-21.83168-9.33888l-407.28576-402.82112c-7.49568-7.45472-10.79296-18.14528-8.8064-28.5696 1.9456-10.36288 8.92928-19.12832 18.61632-23.36768l198.94272-79.68768c134.0416 44.58496 268.12416 1.6384 402.24768 144.71168l-151.28576 378.81856zM863.744748 434.56512l-45.24032 45.21984c-6.2464 6.26688-16.384 6.26688-22.6304 0l-56.58624-56.54528-45.81376 114.85184 3.80928-9.68704c-96.31744-96.1536-194.21184-108.29824-282.5216-119.13216-28.38528-3.4816-55.9104-7.12704-82.944-12.96384l271.70816-108.83072-54.8864-54.8864c-6.2464-6.2464-6.2464-16.384 0-22.6304l45.24032-45.28128c6.2464-6.2464 16.384-6.2464 22.6304 0l247.1936 247.25504c6.32832 6.2464 6.32832 16.384 0.04096 22.6304zM527.995628 672.01024c44.09344 0 79.99488-35.88096 79.99488-79.99488s-35.88096-79.99488-79.99488-79.99488c-44.1344 0-79.99488 35.88096-79.99488 79.99488s35.90144 79.99488 79.99488 79.99488zM527.995628 544.01024c26.50112 0 48.00512 21.504 48.00512 48.00512s-21.504 48.00512-48.00512 48.00512c-26.5216 0-48.00512-21.504-48.00512-48.00512s21.46304-48.00512 48.00512-48.00512zM944.005868 0c-44.1344 0-79.99488 35.88096-79.99488 79.99488s35.88096 79.99488 79.99488 79.99488 79.99488-35.88096 79.99488-79.99488-35.88096-79.99488-79.99488-79.99488zM944.005868 128c-26.50112 0-48.00512-21.504-48.00512-48.00512s21.504-48.00512 48.00512-48.00512 48.00512 21.504 48.00512 48.00512-21.504 48.00512-48.00512 48.00512zM256.000748 544.01024c0 35.28704 28.71296 64 64 64s64-28.71296 64-64-28.71296-64-64-64-64 28.71296-64 64zM320.000748 512c17.67424 0 32.01024 14.29504 32.01024 32.01024s-14.336 32.01024-32.01024 32.01024-32.01024-14.29504-32.01024-32.01024 14.336-32.01024 32.01024-32.01024zM384.000748 736.01024c0-17.67424 14.336-32.01024 32.01024-32.01024s32.01024 14.336 32.01024 32.01024c0 17.67424-14.336 32.01024-32.01024 32.01024s-32.01024-14.336-32.01024-32.01024zM896.000748 256c0-17.67424 14.336-32.01024 32.01024-32.01024s32.01024 14.336 32.01024 32.01024c0 17.67424-14.336 32.01024-32.01024 32.01024s-32.01024-14.336-32.01024-32.01024z" fill="#444444" p-id="2830" data-darkreader-inline-fill="" style="--darkreader-inline-fill: var(--darkreader-background-444444, #3e4446);"></path></svg>