<svg fill="none" height="16" viewBox="0 0 16 16" width="16" xmlns="http://www.w3.org/2000/svg"><path d="m8 0c4.4183.00000008 8 3.58172 8 8 0 4.4183-3.5817 8-8 8-4.41828 0-7.99999956-3.5817-8-8-.00000018-4.41828 3.58172-7.99999982 8-8zm.24121 3.79883c-.32093.00006-.58105.26011-.58105.58105v3.03907h-3.28028c-.32093.00006-.58105.2601-.58105.58105s.26012.58099.58105.58105h3.28028v3.04005c.00023.3207.26027.581.58105.581.32073-.0001.58082-.2603.58106-.581v-3.04005h2.79883c.3208-.00023.581-.26021.581-.58105s-.2602-.58082-.581-.58105h-2.79883v-3.03907c0-.3209-.26018-.58092-.58106-.58105z" fill="#31da9f"/></svg>