<svg width="45" height="31" viewBox="0 0 45 31" fill="none" xmlns="http://www.w3.org/2000/svg">
<path d="M10.125 31C7.26563 30.9077 4.875 29.939 2.95312 28.0938C1.07812 26.2024 0.09375 23.8497 0 21.0357C0.046875 18.8214 0.679688 16.8839 1.89844 15.2233C3.11719 13.5625 4.73437 12.3631 6.75 11.625C6.75 11.4404 6.75 11.2559 6.75 11.0714C6.84375 7.93456 7.94531 5.32816 10.0547 3.25224C12.1641 1.17633 14.8125 0.0922451 18 0C20.1094 0.0461235 22.0078 0.553574 23.6953 1.52235C25.3828 2.53724 26.7422 3.87503 27.7734 5.53572C28.8515 4.79762 30.0937 4.42857 31.5 4.42857C33.4219 4.47469 35.0156 5.12054 36.2812 6.36612C37.5469 7.61163 38.2031 9.18007 38.25 11.0714C38.25 11.9018 38.1094 12.709 37.8281 13.4933C39.8906 13.9085 41.6016 14.9234 42.9609 16.538C44.2734 18.1064 44.9531 19.9747 45 22.1429C44.9531 24.6339 44.0859 26.7329 42.3984 28.4397C40.6641 30.1004 38.5313 30.9539 36 31H10.125ZM15.6797 15.9844C15.0234 16.7686 15.0234 17.5528 15.6797 18.337C16.4766 18.9829 17.2734 18.9829 18.0703 18.337L20.8125 15.6384V24.9107C20.9062 25.9256 21.4687 26.4792 22.5 26.5714C23.5313 26.4792 24.0938 25.9256 24.1875 24.9107V15.6384L26.9297 18.337C27.7266 18.9829 28.5234 18.9829 29.3203 18.337C29.9766 17.5528 29.9766 16.7686 29.3203 15.9844L23.6953 10.4487C22.8984 9.80282 22.1016 9.80282 21.3047 10.4487L15.6797 15.9844Z" fill="#EEEEEE"/>
</svg>
