<svg width="16" height="16" viewBox="0 0 16 16" fill="none" xmlns="http://www.w3.org/2000/svg">
<g id="Group 20043">
<path id="Vector" d="M2.6 16C2.16 16 1.78347 15.8435 1.4704 15.5304C1.15733 15.2173 1.00053 14.8405 1 14.4V3.2C1 2.76 1.1568 2.38347 1.4704 2.0704C1.784 1.75733 2.16053 1.60053 2.6 1.6H3.4V0H5V1.6H11.4V0H13V1.6H13.8C14.24 1.6 14.6168 1.7568 14.9304 2.0704C15.244 2.384 15.4005 2.76053 15.4 3.2V14.4C15.4 14.84 15.2435 15.2168 14.9304 15.5304C14.6173 15.844 14.2405 16.0005 13.8 16H2.6ZM2.6 14.4H13.8V6.4H2.6V14.4ZM2.6 4.8H13.8V3.2H2.6V4.8ZM8.2 9.6C7.97333 9.6 7.78347 9.5232 7.6304 9.3696C7.47733 9.216 7.40053 9.02613 7.4 8.8C7.39947 8.57387 7.47627 8.384 7.6304 8.2304C7.78453 8.0768 7.9744 8 8.2 8C8.4256 8 8.61573 8.0768 8.7704 8.2304C8.92507 8.384 9.0016 8.57387 9 8.8C8.9984 9.02613 8.9216 9.21627 8.7696 9.3704C8.6176 9.52453 8.42773 9.60107 8.2 9.6ZM5 9.6C4.77333 9.6 4.58347 9.5232 4.4304 9.3696C4.27733 9.216 4.20053 9.02613 4.2 8.8C4.19947 8.57387 4.27627 8.384 4.4304 8.2304C4.58453 8.0768 4.7744 8 5 8C5.2256 8 5.41573 8.0768 5.5704 8.2304C5.72507 8.384 5.8016 8.57387 5.8 8.8C5.7984 9.02613 5.7216 9.21627 5.5696 9.3704C5.4176 9.52453 5.22773 9.60107 5 9.6ZM11.4 9.6C11.1733 9.6 10.9835 9.5232 10.8304 9.3696C10.6773 9.216 10.6005 9.02613 10.6 8.8C10.5995 8.57387 10.6763 8.384 10.8304 8.2304C10.9845 8.0768 11.1744 8 11.4 8C11.6256 8 11.8157 8.0768 11.9704 8.2304C12.1251 8.384 12.2016 8.57387 12.2 8.8C12.1984 9.02613 12.1216 9.21627 11.9696 9.3704C11.8176 9.52453 11.6277 9.60107 11.4 9.6ZM8.2 12.8C7.97333 12.8 7.78347 12.7232 7.6304 12.5696C7.47733 12.416 7.40053 12.2261 7.4 12C7.39947 11.7739 7.47627 11.584 7.6304 11.4304C7.78453 11.2768 7.9744 11.2 8.2 11.2C8.4256 11.2 8.61573 11.2768 8.7704 11.4304C8.92507 11.584 9.0016 11.7739 9 12C8.9984 12.2261 8.9216 12.4163 8.7696 12.5704C8.6176 12.7245 8.42773 12.8011 8.2 12.8ZM5 12.8C4.77333 12.8 4.58347 12.7232 4.4304 12.5696C4.27733 12.416 4.20053 12.2261 4.2 12C4.19947 11.7739 4.27627 11.584 4.4304 11.4304C4.58453 11.2768 4.7744 11.2 5 11.2C5.2256 11.2 5.41573 11.2768 5.5704 11.4304C5.72507 11.584 5.8016 11.7739 5.8 12C5.7984 12.2261 5.7216 12.4163 5.5696 12.5704C5.4176 12.7245 5.22773 12.8011 5 12.8ZM11.4 12.8C11.1733 12.8 10.9835 12.7232 10.8304 12.5696C10.6773 12.416 10.6005 12.2261 10.6 12C10.5995 11.7739 10.6763 11.584 10.8304 11.4304C10.9845 11.2768 11.1744 11.2 11.4 11.2C11.6256 11.2 11.8157 11.2768 11.9704 11.4304C12.1251 11.584 12.2016 11.7739 12.2 12C12.1984 12.2261 12.1216 12.4163 11.9696 12.5704C11.8176 12.7245 11.6277 12.8011 11.4 12.8Z" fill="#666666"/>
</g>
</svg>
