<svg width="14" height="14" viewBox="0 0 14 14" fill="none" xmlns="http://www.w3.org/2000/svg">
<g id="Frame 288936" clip-path="url(#clip0_8117_2441)">
<path id="icon" d="M3.13411 14C2.70634 14 2.34013 13.8477 2.0355 13.5431C1.73087 13.2384 1.57856 12.8722 1.57856 12.4444V2.33333C1.149 2.33333 0.800781 1.98511 0.800781 1.55556C0.800781 1.126 1.149 0.777778 1.57856 0.777778H4.68967C4.68967 0.348223 5.03789 0 5.46745 0H8.57856C9.00811 0 9.35634 0.348223 9.35634 0.777778H12.4674C12.897 0.777778 13.2452 1.126 13.2452 1.55556C13.2452 1.98511 12.897 2.33333 12.4674 2.33333V12.4444C12.4674 12.8722 12.3151 13.2384 12.0105 13.5431C11.7059 13.8477 11.3397 14 10.9119 14H3.13411ZM10.9119 2.33333H3.13411V12.4444H10.9119V2.33333ZM4.68967 10.1111C4.68967 10.5407 5.03789 10.8889 5.46745 10.8889C5.897 10.8889 6.24523 10.5407 6.24523 10.1111V4.66667C6.24523 4.23711 5.897 3.88889 5.46745 3.88889C5.03789 3.88889 4.68967 4.23711 4.68967 4.66667V10.1111ZM7.80078 10.1111C7.80078 10.5407 8.149 10.8889 8.57856 10.8889C9.00811 10.8889 9.35634 10.5407 9.35634 10.1111V4.66667C9.35634 4.23711 9.00811 3.88889 8.57856 3.88889C8.149 3.88889 7.80078 4.23711 7.80078 4.66667V10.1111Z" fill="#FF2728"/>
</g>
<defs>
<clipPath id="clip0_8117_2441">
<rect width="14" height="14" fill="white"/>
</clipPath>
</defs>
</svg>
