<svg width="50" height="50" viewBox="0 0 50 50" fill="none" xmlns="http://www.w3.org/2000/svg">
<path fill-rule="evenodd" clip-rule="evenodd" d="M12.7211 5.29931C12.9795 5.10428 13.1955 4.86045 13.3564 4.58218C13.5173 4.30392 13.6199 3.99685 13.658 3.67907C13.6962 3.36128 13.6692 3.0392 13.5787 2.73181C13.4881 2.42442 13.3359 2.13793 13.1308 1.88922C12.9257 1.64051 12.6721 1.43461 12.3847 1.28365C12.0974 1.13269 11.7822 1.03972 11.4576 1.01021C11.1331 0.980712 10.8059 1.01528 10.4952 1.11187C10.1845 1.20846 9.89664 1.36513 9.64857 1.57265C7.01279 3.66229 4.84858 6.26747 3.29349 9.22261C3.13932 9.50285 3.04354 9.81043 3.01175 10.1274C2.97997 10.4444 3.01281 10.7644 3.10836 11.0688C3.20392 11.3732 3.36027 11.6558 3.56829 11.9002C3.77631 12.1446 4.03183 12.3459 4.31993 12.4922C4.60803 12.6386 4.92295 12.7272 5.24629 12.7528C5.56964 12.7783 5.89493 12.7404 6.20318 12.6412C6.51143 12.542 6.79646 12.3834 7.04164 12.1749C7.28682 11.9663 7.48722 11.7119 7.63116 11.4265C8.8761 9.05922 10.6095 6.97253 12.7211 5.29931ZM40.3542 1.57265C40.1061 1.36513 39.8182 1.20846 39.5075 1.11187C39.1968 1.01528 38.8696 0.980712 38.5451 1.01021C38.2206 1.03972 37.9054 1.13269 37.618 1.28365C37.3307 1.43461 37.077 1.64051 36.8719 1.88922C36.6669 2.13793 36.5146 2.42442 36.4241 2.73181C36.3335 3.0392 36.3065 3.36128 36.3447 3.67907C36.3829 3.99685 36.4855 4.30392 36.6464 4.58218C36.8073 4.86045 37.0233 5.10428 37.2817 5.29931C39.4019 6.98012 41.1407 9.07782 42.3862 11.4576C42.5331 11.7376 42.7348 11.9864 42.9796 12.1899C43.2244 12.3933 43.5077 12.5475 43.8132 12.6434C44.1187 12.7394 44.4404 12.7754 44.7601 12.7493C45.0797 12.7231 45.391 12.6355 45.6761 12.4912C45.9613 12.347 46.2147 12.149 46.4219 11.9086C46.6291 11.6682 46.7861 11.3901 46.8838 11.0902C46.9816 10.7902 47.0182 10.4743 46.9916 10.1604C46.965 9.84658 46.8757 9.54095 46.7288 9.26098C45.1725 6.29021 43.0013 3.67149 40.3542 1.57265ZM7.90471 20.2227C7.90471 15.7706 9.70596 11.5008 12.9122 8.3527C16.1185 5.20458 20.4671 3.43598 25.0014 3.43598C29.5357 3.43598 33.8843 5.20458 37.0905 8.3527C40.2968 11.5008 42.098 15.7706 42.098 20.2227V29.2492L46.5481 37.9879C46.7529 38.3901 46.8496 38.8371 46.8291 39.2863C46.8085 39.7355 46.6713 40.1722 46.4305 40.5547C46.1897 40.9372 45.8533 41.2529 45.4532 41.4719C45.0532 41.6908 44.6028 41.8057 44.1448 41.8057H5.85799C5.39999 41.8057 4.94958 41.6908 4.54953 41.4719C4.14948 41.2529 3.81308 40.9372 3.57228 40.5547C3.33148 40.1722 3.19427 39.7355 3.17369 39.2863C3.15311 38.8371 3.24984 38.3901 3.45469 37.9879L7.90471 29.2492V20.2227ZM17.6742 44.2038H32.3285C32.3285 45.4758 31.8139 46.6958 30.8978 47.5952C29.9817 48.4947 28.7393 49 27.4438 49H22.559C21.2635 49 20.021 48.4947 19.1049 47.5952C18.1889 46.6958 17.6742 45.4758 17.6742 44.2038Z" fill="#1484FC"/>
</svg>
