<svg width="50" height="50" viewBox="0 0 50 50" fill="none" xmlns="http://www.w3.org/2000/svg">
<g id="ic-&#230;&#136;&#144;&#229;&#138;&#159;">
<path id="Vector" d="M25 1C31.3652 1 37.4697 3.52856 41.9706 8.02944C46.4714 12.5303 49 18.6348 49 25C49 31.3652 46.4714 37.4697 41.9706 41.9706C37.4697 46.4714 31.3652 49 25 49C18.6348 49 12.5303 46.4714 8.02944 41.9706C3.52856 37.4697 1 31.3652 1 25C1 18.6348 3.52856 12.5303 8.02944 8.02944C12.5303 3.52856 18.6348 1 25 1ZM22.0103 29.7349L16.6789 24.4C16.4877 24.2089 16.2608 24.0573 16.0111 23.9538C15.7614 23.8504 15.4937 23.7971 15.2234 23.7971C14.9531 23.7971 14.6855 23.8504 14.4358 23.9538C14.186 24.0573 13.9591 24.2089 13.768 24.4C13.382 24.786 13.1651 25.3095 13.1651 25.8554C13.1651 26.4013 13.382 26.9249 13.768 27.3109L20.5566 34.0994C20.7472 34.2915 20.9739 34.444 21.2237 34.548C21.4735 34.6521 21.7414 34.7057 22.012 34.7057C22.2826 34.7057 22.5505 34.6521 22.8003 34.548C23.0501 34.444 23.2768 34.2915 23.4674 34.0994L37.5246 20.0389C37.7183 19.8485 37.8723 19.6217 37.9779 19.3715C38.0835 19.1214 38.1385 18.8527 38.1398 18.5812C38.1411 18.3096 38.0886 18.0405 37.9853 17.7894C37.882 17.5382 37.7301 17.31 37.5382 17.1179C37.3463 16.9257 37.1182 16.7735 36.8672 16.6699C36.6161 16.5664 36.3471 16.5135 36.0755 16.5145C35.804 16.5154 35.5353 16.5701 35.285 16.6754C35.0347 16.7807 34.8077 16.9345 34.6171 17.128L22.0103 29.7349Z" fill="#31DA9F"/>
</g>
</svg>
