<svg width="20" height="20" viewBox="0 0 20 20" fill="none" xmlns="http://www.w3.org/2000/svg">
<g clip-path="url(#clip0_1723_24)">
<path d="M18.3125 7.6416C18.6728 7.6416 19.0187 7.78429 19.2734 8.03906C19.5282 8.29383 19.6709 8.6397 19.6709 9V18.3125C19.6709 18.6725 19.5279 19.0178 19.2734 19.2725C19.0187 19.5272 18.6728 19.6709 18.3125 19.6709H9.1875C8.8272 19.6709 8.48133 19.5272 8.22656 19.2725C7.97209 19.0178 7.82914 18.6725 7.8291 18.3125V9C7.8291 8.6397 7.97179 8.29383 8.22656 8.03906C8.48133 7.78429 8.8272 7.6416 9.1875 7.6416H18.3125ZM9.3584 18.1416H18.1416V9.1709H9.3584V18.1416ZM10.9502 0.329102C11.3103 0.329153 11.6555 0.472036 11.9102 0.726562C12.1649 0.98133 12.3086 1.3272 12.3086 1.6875V5.60645C12.3085 5.80895 12.228 6.00319 12.085 6.14648C11.9416 6.28986 11.7467 6.37104 11.5439 6.37109C11.3411 6.37109 11.1463 6.2899 11.0029 6.14648C10.8597 6.00317 10.7794 5.80904 10.7793 5.60645V1.8584H1.8584V11.2539H6.03125C6.23406 11.2539 6.42885 11.3341 6.57227 11.4775C6.71567 11.6209 6.79589 11.8157 6.7959 12.0186C6.7959 12.2214 6.71567 12.4162 6.57227 12.5596C6.42885 12.703 6.23407 12.7832 6.03125 12.7832H1.6875C1.3272 12.7832 0.98133 12.6405 0.726562 12.3857C0.471806 12.131 0.329102 11.7851 0.329102 11.4248V1.6875C0.329102 1.32724 0.471843 0.981323 0.726562 0.726562C0.981331 0.471794 1.3272 0.329102 1.6875 0.329102H10.9502Z" fill="#31DA9F" stroke="#31DA9F" stroke-width="0.342"/>
<path d="M19 18H9V9H19V18ZM14.125 10C14.0041 10 13.8855 10.0347 13.7842 10.1006C13.6829 10.1665 13.6028 10.2607 13.5537 10.3711L11.0537 15.9961C10.9864 16.1476 10.9824 16.3199 11.042 16.4746C11.1015 16.6293 11.2197 16.754 11.3711 16.8213C11.5226 16.8886 11.6949 16.8935 11.8496 16.834C12.0043 16.7744 12.129 16.6554 12.1963 16.5039L12.5859 15.625H15.6641L16.0537 16.5039C16.121 16.6554 16.2457 16.7744 16.4004 16.834C16.5551 16.8935 16.7275 16.8886 16.8789 16.8213C17.0303 16.754 17.1485 16.6292 17.208 16.4746C17.2676 16.3199 17.2636 16.1476 17.1963 15.9961L14.6963 10.3711C14.6472 10.2606 14.5672 10.1665 14.4658 10.1006C14.3645 10.0347 14.2459 10 14.125 10ZM15.1074 14.375H13.1416L14.125 12.1631L15.1074 14.375Z" fill="#31DA9F"/>
<mask id="path-3-outside-1_1723_24" maskUnits="userSpaceOnUse" x="2" y="3" width="8" height="8" fill="black">
<rect fill="white" x="2" y="3" width="8" height="8"/>
<path d="M3.36 4.52H5.92667C5.85111 4.24 5.74444 3.93556 5.60667 3.60667H6.56C6.66222 3.84222 6.76889 4.14667 6.88 4.52H9.48L9.29333 5.3H8.56667C8.27333 6.32222 7.76889 7.17111 7.05333 7.84667C7.69778 8.28222 8.48444 8.64667 9.41333 8.94V9.77333C8.15111 9.39556 7.13333 8.94 6.36 8.40667C5.58222 8.94889 4.55111 9.40667 3.26667 9.78V8.94667C4.20444 8.64889 4.99778 8.28 5.64667 7.84C4.91778 7.16 4.40222 6.31333 4.1 5.3H3.18L3.36 4.52ZM5.09333 5.3C5.31111 6.05111 5.72667 6.71111 6.34 7.28C6.94 6.72 7.35111 6.06 7.57333 5.3H5.09333Z"/>
</mask>
<path d="M3.36 4.52H5.92667C5.85111 4.24 5.74444 3.93556 5.60667 3.60667H6.56C6.66222 3.84222 6.76889 4.14667 6.88 4.52H9.48L9.29333 5.3H8.56667C8.27333 6.32222 7.76889 7.17111 7.05333 7.84667C7.69778 8.28222 8.48444 8.64667 9.41333 8.94V9.77333C8.15111 9.39556 7.13333 8.94 6.36 8.40667C5.58222 8.94889 4.55111 9.40667 3.26667 9.78V8.94667C4.20444 8.64889 4.99778 8.28 5.64667 7.84C4.91778 7.16 4.40222 6.31333 4.1 5.3H3.18L3.36 4.52ZM5.09333 5.3C5.31111 6.05111 5.72667 6.71111 6.34 7.28C6.94 6.72 7.35111 6.06 7.57333 5.3H5.09333Z" fill="#31DA9F"/>
<path d="M3.36 4.52V4.35333H3.22741L3.1976 4.48252L3.36 4.52ZM5.92667 4.52V4.68667H6.14427L6.08758 4.47658L5.92667 4.52ZM5.60667 3.60667V3.44H5.35615L5.45294 3.67106L5.60667 3.60667ZM6.56 3.60667L6.71289 3.54032L6.66936 3.44H6.56V3.60667ZM6.88 4.52L6.72026 4.56754L6.75571 4.68667H6.88V4.52ZM9.48 4.52L9.64209 4.55879L9.69126 4.35333H9.48V4.52ZM9.29333 5.3V5.46667H9.42482L9.45542 5.33879L9.29333 5.3ZM8.56667 5.3V5.13333H8.4411L8.40647 5.25403L8.56667 5.3ZM7.05333 7.84667L6.93892 7.72548L6.78767 7.86827L6.96001 7.98475L7.05333 7.84667ZM9.41333 8.94H9.58V8.81785L9.46352 8.78107L9.41333 8.94ZM9.41333 9.77333L9.36555 9.933L9.58 9.99719V9.77333H9.41333ZM6.36 8.40667L6.45462 8.26946L6.35949 8.20385L6.26469 8.26994L6.36 8.40667ZM3.26667 9.78H3.1V10.002L3.31318 9.94004L3.26667 9.78ZM3.26667 8.94667L3.21623 8.78782L3.1 8.82472V8.94667H3.26667ZM5.64667 7.84L5.7402 7.97794L5.91315 7.86067L5.76036 7.71813L5.64667 7.84ZM4.1 5.3L4.25971 5.25237L4.22421 5.13333H4.1V5.3ZM3.18 5.3L3.0176 5.26252L2.97049 5.46667H3.18V5.3ZM5.09333 5.3V5.13333H4.87148L4.93326 5.34641L5.09333 5.3ZM6.34 7.28L6.22666 7.4022L6.34035 7.50765L6.45372 7.40184L6.34 7.28ZM7.57333 5.3L7.7333 5.34677L7.79571 5.13333H7.57333V5.3ZM3.36 4.52V4.68667H5.92667V4.52V4.35333H3.36V4.52ZM5.92667 4.52L6.08758 4.47658C6.00972 4.18804 5.90041 3.8765 5.76039 3.54227L5.60667 3.60667L5.45294 3.67106C5.58848 3.99461 5.69251 4.29196 5.76576 4.56342L5.92667 4.52ZM5.60667 3.60667V3.77333H6.56V3.60667V3.44H5.60667V3.60667ZM6.56 3.60667L6.40711 3.67302C6.50569 3.90018 6.61019 4.1977 6.72026 4.56754L6.88 4.52L7.03974 4.47246C6.92759 4.09563 6.81875 3.78426 6.71289 3.54032L6.56 3.60667ZM6.88 4.52V4.68667H9.48V4.52V4.35333H6.88V4.52ZM9.48 4.52L9.31791 4.48121L9.13124 5.26121L9.29333 5.3L9.45542 5.33879L9.64209 4.55879L9.48 4.52ZM9.29333 5.3V5.13333H8.56667V5.3V5.46667H9.29333V5.3ZM8.56667 5.3L8.40647 5.25403C8.12069 6.24993 7.631 7.07208 6.93892 7.72548L7.05333 7.84667L7.16775 7.96786C7.90678 7.27014 8.42598 6.39452 8.72687 5.34597L8.56667 5.3ZM7.05333 7.84667L6.96001 7.98475C7.62061 8.43123 8.42263 8.80192 9.36315 9.09893L9.41333 8.94L9.46352 8.78107C8.54626 8.49141 7.77495 8.13322 7.14666 7.70858L7.05333 7.84667ZM9.41333 8.94H9.24667V9.77333H9.41333H9.58V8.94H9.41333ZM9.41333 9.77333L9.46112 9.61366C8.20942 9.23903 7.20913 8.78982 6.45462 8.26946L6.36 8.40667L6.26538 8.54387C7.05754 9.09018 8.09281 9.55208 9.36555 9.933L9.41333 9.77333ZM6.36 8.40667L6.26469 8.26994C5.50653 8.79849 4.49374 9.24978 3.22015 9.61996L3.26667 9.78L3.31318 9.94004C4.60848 9.56356 5.65792 9.09929 6.45531 8.54339L6.36 8.40667ZM3.26667 9.78H3.43333V8.94667H3.26667H3.1V9.78H3.26667ZM3.26667 8.94667L3.31711 9.10552C4.26647 8.80406 5.07515 8.4289 5.7402 7.97794L5.64667 7.84L5.55313 7.70206C4.9204 8.1311 4.14242 8.49372 3.21623 8.78782L3.26667 8.94667ZM5.64667 7.84L5.76036 7.71813C5.05447 7.05959 4.554 6.2391 4.25971 5.25237L4.1 5.3L3.94029 5.34763C4.25044 6.38757 4.78109 7.26041 5.53297 7.96187L5.64667 7.84ZM4.1 5.3V5.13333H3.18V5.3V5.46667H4.1V5.3ZM3.18 5.3L3.3424 5.33748L3.5224 4.55748L3.36 4.52L3.1976 4.48252L3.0176 5.26252L3.18 5.3ZM5.09333 5.3L4.93326 5.34641C5.16004 6.12859 5.59277 6.81424 6.22666 7.4022L6.34 7.28L6.45334 7.1578C5.86056 6.60798 5.46218 5.97364 5.25341 5.25359L5.09333 5.3ZM6.34 7.28L6.45372 7.40184C7.07476 6.82221 7.50237 6.13657 7.7333 5.34677L7.57333 5.3L7.41337 5.25323C7.19986 5.98343 6.80524 6.61779 6.22628 7.15816L6.34 7.28ZM7.57333 5.3V5.13333H5.09333V5.3V5.46667H7.57333V5.3Z" fill="#31DA9F" mask="url(#path-3-outside-1_1723_24)"/>
</g>
<defs>
<clipPath id="clip0_1723_24">
<rect width="20" height="20" fill="white"/>
</clipPath>
</defs>
</svg>
