<svg width="40" height="40" viewBox="0 0 40 40" fill="none" xmlns="http://www.w3.org/2000/svg">
<g id="Frame 19793">
<g id="Group 19978">
<path id="Subtract" d="M17.1191 13.9988C19.6554 14.0383 21.699 16.105 21.6992 18.6482C21.6992 20.108 21.0252 21.4102 19.9746 22.2634C20.3644 22.4441 20.7352 22.6611 21.084 22.9089C20.8013 23.4135 20.5885 23.9621 20.457 24.5417C20.043 24.1923 19.5774 23.907 19.0752 23.699C18.4316 23.4325 17.7415 23.2966 17.0449 23.2986C15.6291 23.2986 14.2969 23.8493 13.2949 24.8513C12.3372 25.8091 11.7906 27.0714 11.7441 28.4197C11.7418 28.5196 11.6585 28.5983 11.5586 28.5984H10.2568C10.232 28.5984 10.2074 28.5934 10.1846 28.5837C10.1617 28.5741 10.1404 28.5605 10.123 28.5427C10.1058 28.5251 10.0921 28.5041 10.083 28.4812C10.0739 28.4581 10.0697 28.4328 10.0703 28.408C10.1168 26.618 10.8375 24.9393 12.1113 23.6677C12.6932 23.0854 13.3734 22.6099 14.1201 22.2634C13.0671 21.4102 12.3955 20.108 12.3955 18.6482C12.3957 16.0726 14.5435 13.9594 17.1191 13.9988ZM17.0752 15.6726C16.2871 15.6656 15.5226 15.9732 14.96 16.5242C14.3835 17.089 14.0675 17.844 14.0674 18.6482C14.0674 19.4432 14.3759 20.1901 14.9385 20.7527C15.2144 21.0299 15.5429 21.2495 15.9043 21.3992C16.2658 21.5488 16.6537 21.6259 17.0449 21.6248C17.84 21.6248 18.5891 21.3153 19.1494 20.7527C19.4305 20.4738 19.652 20.1407 19.8018 19.7742C19.9515 19.4075 20.0259 19.014 20.0205 18.6179C20.0134 17.8556 19.7089 17.1192 19.1768 16.573C18.6188 16.0011 17.8726 15.6819 17.0752 15.6726ZM21.6152 10.0007C24.1933 9.96121 26.3416 12.0738 26.3418 14.6472C26.3418 16.1071 25.6701 17.4092 24.6172 18.2625C25.3564 18.6042 26.0375 19.0763 26.6279 19.6667C26.662 19.7008 26.6942 19.7366 26.7275 19.7712C26.634 19.767 26.5399 19.7644 26.4453 19.7644C25.756 19.7644 25.0932 19.8791 24.4746 20.0886C24.0194 19.807 23.5265 19.5953 23.0078 19.4646C22.9174 19.4413 22.8566 19.3553 22.8682 19.2625C22.8891 19.0602 22.9014 18.8551 22.9014 18.6482C22.9013 18.2787 22.8659 17.9181 22.8008 17.5671C22.7848 17.4836 22.8297 17.3978 22.9062 17.363C23.2223 17.2212 23.5127 17.0254 23.7637 16.7791C24.0594 16.4922 24.2924 16.1472 24.4473 15.7654C24.6022 15.3835 24.6755 14.9732 24.6631 14.5613C24.6421 13.8152 24.3422 13.1066 23.8193 12.572C23.2451 11.9838 22.473 11.6623 21.6523 11.6716C20.9109 11.6787 20.1949 11.9647 19.6533 12.4714C19.4697 12.6435 19.3112 12.8342 19.1787 13.0388C19.1322 13.1108 19.0419 13.1409 18.9629 13.113C18.5539 12.9713 18.1216 12.8715 17.6777 12.825C17.5475 12.811 17.4731 12.6717 17.5312 12.5554C18.2868 11.0607 19.8299 10.0288 21.6152 10.0007Z" fill="#31DA9F"/>
<path id="Vector" d="M25.4219 25.8058C25.5576 25.8058 25.6882 25.8602 25.7842 25.9562C25.88 26.0522 25.9345 26.182 25.9346 26.3176C25.9346 26.4533 25.8802 26.5839 25.7842 26.6799L25.0195 27.4445H29.5186C29.6543 27.4445 29.7848 27.4989 29.8809 27.5949C29.9767 27.6908 30.0312 27.8206 30.0312 27.9562C30.0312 28.092 29.9769 28.2225 29.8809 28.3185C29.7848 28.4145 29.6543 28.4689 29.5186 28.4689H25.0195L25.7852 29.2346C25.8784 29.3311 25.9309 29.4607 25.9297 29.5949C25.9285 29.7291 25.8742 29.8575 25.7793 29.9523C25.6844 30.0472 25.556 30.1005 25.4219 30.1017C25.2876 30.1029 25.1581 30.0515 25.0615 29.9582L23.4219 28.3185C23.3259 28.2225 23.2715 28.092 23.2715 27.9562C23.2716 27.8206 23.326 27.6908 23.4219 27.5949L25.0605 25.9562C25.1565 25.8604 25.2863 25.806 25.4219 25.8058ZM27.8799 21.7092C28.0157 21.7092 28.1462 21.7636 28.2422 21.8596L29.8809 23.4982C29.9767 23.5942 30.0311 23.724 30.0312 23.8596C30.0312 23.9953 29.9768 24.1258 29.8809 24.2219L28.2412 25.8615C28.1446 25.9548 28.0151 26.0072 27.8809 26.006C27.7467 26.0049 27.6183 25.9505 27.5234 25.8557C27.4286 25.7608 27.3743 25.6324 27.373 25.4982C27.3719 25.3641 27.4235 25.2344 27.5166 25.1379L27.5186 25.1369L28.2832 24.3723H23.7832C23.6476 24.3721 23.5178 24.3177 23.4219 24.2219C23.3259 24.1258 23.2715 23.9954 23.2715 23.8596C23.2716 23.7239 23.326 23.5942 23.4219 23.4982C23.5178 23.4023 23.6476 23.348 23.7832 23.3478H28.2832L27.5186 22.5832C27.4226 22.4872 27.3682 22.3567 27.3682 22.2209C27.3683 22.0853 27.4227 21.9555 27.5186 21.8596C27.6145 21.7637 27.7443 21.7093 27.8799 21.7092Z" fill="#31DA9F" stroke="#31DA9F" stroke-width="0.204704"/>
</g>
</g>
</svg>
