<svg width="50" height="50" viewBox="0 0 50 50" fill="none" xmlns="http://www.w3.org/2000/svg">
<g id="ic_&#229;&#188;&#130;&#229;&#184;&#184;">
<path id="Polygon 5" d="M22.3789 5.5C23.5438 3.5 26.4562 3.5 27.6211 5.5L48.59 41.5C49.7549 43.5 48.2988 46 45.9689 46L4.03111 46C1.70124 46 0.245065 43.5 1.41 41.5L22.3789 5.5Z" fill="#FF4249"/>
<path id="Line 61 (Stroke)" fill-rule="evenodd" clip-rule="evenodd" d="M24.9999 15.4868C25.8357 15.4868 26.5132 16.1643 26.5132 17.0001L26.5132 30.0001C26.5132 30.8359 25.8357 31.5134 24.9999 31.5134C24.1641 31.5134 23.4866 30.8359 23.4866 30.0001L23.4866 17.0001C23.4866 16.1643 24.1641 15.4868 24.9999 15.4868Z" fill="white"/>
<path id="Line 62" d="M25 35L25 39" stroke="white" stroke-width="3.0266" stroke-linecap="round"/>
</g>
</svg>
